<svg id="visual" viewBox="0 0 960 540" width="960" height="540" xmlns="http://www.w3.org/2000/svg" xmlns:xlink="http://www.w3.org/1999/xlink" version="1.1"><rect x="0" y="0" width="960" height="540" fill="#001220"></rect><defs><linearGradient id="grad1_0" x1="43.8%" y1="100%" x2="100%" y2="0%"><stop offset="14.444444444444446%" stop-color="#001220" stop-opacity="1"></stop><stop offset="85.55555555555554%" stop-color="#001220" stop-opacity="1"></stop></linearGradient></defs><defs><linearGradient id="grad2_0" x1="0%" y1="100%" x2="56.3%" y2="0%"><stop offset="14.444444444444446%" stop-color="#001220" stop-opacity="1"></stop><stop offset="85.55555555555554%" stop-color="#001220" stop-opacity="1"></stop></linearGradient></defs><g transform="translate(960, 540)"><path d="M-405 0C-390.3 -40.8 -375.6 -81.5 -356.6 -115.9C-337.7 -150.2 -314.6 -178.2 -296.9 -215.7C-279.2 -253.3 -267 -300.4 -238.1 -327.7C-209.1 -354.9 -163.3 -362.3 -120.8 -371.9C-78.4 -381.4 -39.2 -393.2 0 -405L0 0Z" fill="#00AEEF"></path></g><g transform="translate(0, 0)"><path d="M405 0C391.1 39.8 377.2 79.5 364.3 118.4C351.3 157.2 339.2 195.1 319.6 232.2C300 269.3 272.9 305.6 238.1 327.7C203.2 349.7 160.6 357.5 119.6 368.1C78.6 378.6 39.3 391.8 0 405L0 0Z" fill="#00AEEF"></path></g></svg>