<svg id="visual" viewBox="0 0 960 540" width="960" height="540" xmlns="http://www.w3.org/2000/svg" xmlns:xlink="http://www.w3.org/1999/xlink" version="1.1"><rect x="0" y="0" width="960" height="540" fill="#002233"></rect><path d="M0 385L22.8 391C45.7 397 91.3 409 137 425C182.7 441 228.3 461 274 453.3C319.7 445.7 365.3 410.3 411.2 391.5C457 372.7 503 370.3 548.8 369.2C594.7 368 640.3 368 686 377C731.7 386 777.3 404 823 406.2C868.7 408.3 914.3 394.7 937.2 387.8L960 381L960 541L937.2 541C914.3 541 868.7 541 823 541C777.3 541 731.7 541 686 541C640.3 541 594.7 541 548.8 541C503 541 457 541 411.2 541C365.3 541 319.7 541 274 541C228.3 541 182.7 541 137 541C91.3 541 45.7 541 22.8 541L0 541Z" fill="#0066FF" stroke-linecap="round" stroke-linejoin="miter"></path></svg>