<svg id="visual" viewBox="0 0 960 540" width="960" height="540" xmlns="http://www.w3.org/2000/svg" xmlns:xlink="http://www.w3.org/1999/xlink" version="1.1"><rect x="0" y="0" width="960" height="540" fill="#002233"></rect><path d="M0 91L22.8 87.5C45.7 84 91.3 77 137 67.5C182.7 58 228.3 46 274 50.5C319.7 55 365.3 76 411.2 87.3C457 98.7 503 100.3 548.8 101.2C594.7 102 640.3 102 686 96.5C731.7 91 777.3 80 823 78.7C868.7 77.3 914.3 85.7 937.2 89.8L960 94L960 0L937.2 0C914.3 0 868.7 0 823 0C777.3 0 731.7 0 686 0C640.3 0 594.7 0 548.8 0C503 0 457 0 411.2 0C365.3 0 319.7 0 274 0C228.3 0 182.7 0 137 0C91.3 0 45.7 0 22.8 0L0 0Z" fill="#0066FF" stroke-linecap="round" stroke-linejoin="miter"></path></svg>